<svg version="1.1" viewBox="0.0 0.0 800.0 600.0" fill="none" stroke="none" stroke-linecap="square" stroke-miterlimit="10" xmlns:xlink="http://www.w3.org/1999/xlink" xmlns="http://www.w3.org/2000/svg"><clipPath id="p.0"><path d="m0 0l800.0 0l0 600.0l-800.0 0l0 -600.0z" clip-rule="nonzero"/></clipPath><g clip-path="url(#p.0)"><path fill="#000000" fill-opacity="0.0" d="m0 0l800.0 0l0 600.0l-800.0 0z" fill-rule="evenodd"/><path fill="#000000" fill-opacity="0.0" d="m-19.32021 61.377953l800.0 0l0 391.0551l-800.0 0z" fill-rule="evenodd"/><path fill="#649bff" d="m58.36729 381.02795q-5.515625 0.3125 -9.203125 -5.21875q-3.671875 -5.515625 -3.359375 -9.1875q0.296875 -4.90625 2.75 -14.109375q2.453125 -9.203125 5.515625 -18.703125q3.078125 -9.515625 5.53125 -15.03125q1.21875 -4.90625 2.296875 -8.734375q1.078125 -3.84375 1.375 -5.0625q0.9218712 -1.234375 2.9062462 -6.4375q2.0 -5.21875 3.234375 -10.125q0.609375 -2.453125 2.59375 -9.34375q2.0 -6.90625 4.90625 -16.109375q2.921875 -9.203125 5.828125 -18.09375q2.921875 -8.890625 5.0625 -15.625q2.15625 -6.75 2.765625 -8.90625q2.453125 -3.671875 3.671875 -7.046875q1.234375 -3.375 1.546875 -4.609375q1.828125 -1.21875 2.140625 -3.203125q0.3125 -2.0 0.3125 -3.234375q0 -1.53125 1.0625 -2.453125q1.078125 -0.921875 1.078125 -2.140625q1.21875 -0.921875 1.53125 -0.3125q0.3125 0.609375 1.84375 -0.921875l1.53125 -10.421875l27.296883 -0.3125q-0.625 3.6875 -1.859375 9.0625q-1.21875 5.359375 -5.8125076 14.25q-1.53125 6.140625 -3.53125 11.046875q-1.984375 4.90625 -1.6875 6.4375q-0.609375 0.609375 -2.609375 6.125q-1.984375 5.515625 -4.59375 13.5q-2.609375 7.96875 -5.21875 15.953125q-2.59375 7.96875 -4.59375 13.953125q-1.984375 5.96875 -2.609375 7.5q-2.453125 4.90625 -5.515625 14.421875q-3.0625 9.5 -9.203125 25.75q-2.453125 4.90625 -5.984375 14.71875q-3.515625 9.8125 -5.65625 17.78125q-3.375 11.96875 -5.984375 17.171875q-2.609375 5.21875 -4.765621 6.296875q-2.140625 1.078125 -4.59375 1.375zm2.765625 -180.3125q-12.578125 1.234375 -17.03125 -3.0625q-4.4375 -4.296875 -3.203125 -9.203125q0.90625 -3.671875 4.4375 -6.28125q3.53125 -2.609375 13.03125 -4.453125q3.375 -0.609375 8.734371 -1.53125q5.375 -0.921875 10.28125 -1.84375q10.125 -1.21875 16.71875 -2.140625q6.59375 -0.921875 13.640625 -1.53125q7.046875 -0.625 17.78125 -1.234375q8.890633 -0.609375 15.171883 -1.0625q6.296875 -0.46875 6.296875 -0.46875q0.921875 0 6.4375 0.625q5.53125 0.609375 11.96875 1.53125q6.4375 0.90625 9.5 2.140625q7.0625 1.53125 11.34375 5.515625q4.296875 3.984375 5.53125 9.203125q0.90625 3.671875 -0.015625 5.671875q-0.90625 2.0 -3.359375 3.21875q-7.0625 2.140625 -11.515625 3.53125q-4.4375 1.375 -8.734375 -0.15625q-1.53125 -1.53125 -3.53125 -2.75q-1.984375 -1.234375 -6.734375 -2.0q-4.75 -0.765625 -14.875 -1.390625q-8.59375 0.921875 -15.031258 0.921875q-6.4375 0 -6.4375 1.53125l-18.09375 0.921875l-15.015625 1.53125q-3.078125 0.3125 -8.59375 0.78125q-5.515625 0.453125 -10.734375 0.921875q-5.218746 0.453125 -7.968746 1.0625zm99.66632 160.6875q-11.65625 1.53125 -17.640625 1.53125q-5.984375 0 -9.046875 -1.21875q-3.0625 -1.234375 -5.828125 -3.375q-3.0625076 -2.15625 -3.3750076 -8.734375q-0.296875 -6.59375 9.203133 -16.40625q5.828125 -7.0625 11.953125 -13.34375q6.140625 -6.296875 11.046875 -10.28125q2.15625 -1.828125 4.453125 -3.359375q2.296875 -1.546875 7.8125 -5.375q5.515625 -3.828125 17.484375 -11.8125q5.828125 -4.59375 8.28125 -6.4375q2.453125 -1.84375 3.984375 -2.90625q1.53125 -1.078125 3.984375 -2.921875q-2.140625 -0.296875 -8.125 -1.0625q-5.984375 -0.765625 -12.109375 -0.15625q-8.59375 0 -9.828125 -0.15625q-1.21875 -0.15625 -3.671875 -0.765625l-4.59375 0q-1.53125 0 -5.375 -2.140625q-3.828125 -2.15625 -7.046875 -5.0625q-3.21875 -2.921875 -3.53125 -5.0625q0 0 1.84375 -2.140625q1.84375 -2.15625 3.0625 -3.375q2.453125 -1.53125 3.828125 -2.453125q1.390625 -0.921875 2.609375 0.296875q0 0 7.671875 -0.453125q7.671875 -0.46875 15.03125 -0.765625q17.78125 0.296875 26.203125 1.078125q8.4375 0.765625 12.578125 2.609375q4.140625 1.828125 8.125 5.515625q4.921875 4.90625 6.453125 11.046875q1.53125 6.125 -1.84375 9.796875q-1.234375 1.234375 -2.3125 2.609375q-1.0625 1.375 -1.984375 1.375q0 0 -4.296875 2.765625q-4.28125 2.765625 -10.421875 6.75q-5.828125 3.984375 -11.5 7.359375q-5.671875 3.375 -6.890625 4.90625q-2.15625 1.21875 -5.21875 3.21875q-3.0625 1.984375 -4.296875 3.21875q-0.921875 1.21875 -4.140625 4.296875q-3.21875 3.0625 -6.890625 5.515625q-2.765625 2.453125 -5.984375 5.515625q-3.21875 3.0625 -5.53125 5.375q-2.296875 2.296875 -2.296875 2.296875q0 0 4.59375 -0.765625q4.609375 -0.765625 12.265625 -1.53125q7.671875 -0.765625 16.578125 -0.15625q14.40625 -0.3125 22.828125 -0.765625q8.4375 -0.46875 12.890625 -0.3125q4.453125 0.15625 6.90625 1.375q2.140625 0.625 3.203125 4.3125q1.078125 3.671875 1.390625 7.359375q0.3125 3.671875 -0.3125 4.59375q-1.21875 0 -9.5 0.765625q-8.28125 0.765625 -19.015625 1.375q-14.109375 1.21875 -27.296875 3.0625q-13.171875 1.84375 -26.359375 3.375zm198.40135 5.21875q-4.296875 -1.234375 -8.59375 -4.296875q-4.28125 -3.0625 -8.890625 -7.046875q-3.671875 -4.90625 -5.203125 -9.046875q-1.53125 -4.140625 -1.6875 -9.8125q-0.15625 -5.671875 -0.15625 -14.578125q0 -3.671875 1.375 -10.421875q1.390625 -6.75 3.0625 -14.109375q1.6875 -7.359375 3.21875 -13.03125q1.546875 -5.671875 1.84375 -7.515625q0.921875 -3.984375 -3.0625 -4.59375q-3.984375 -0.609375 -8.734375 -0.453125q-4.75 0.140625 -6.296875 -0.78125q-1.21875 -0.296875 -1.21875 -3.203125q0 -2.921875 0 -2.921875q0 -1.234375 -1.234375 -1.6875q-1.21875 -0.453125 -2.140625 -2.0q-0.609375 -1.21875 1.53125 -4.59375q2.140625 -3.375 5.515625 -3.984375q2.765625 -0.609375 8.28125 -1.0625q5.53125 -0.46875 11.203125 -2.15625q5.671875 -1.6875 8.734375 -5.375q2.765625 -6.734375 6.125 -14.546875q3.375 -7.828125 6.4375 -13.8125q3.078125 -5.984375 4.296875 -7.515625q5.21875 -2.765625 10.734375 -2.296875q5.53125 0.453125 8.59375 5.359375q1.53125 2.15625 2.59375 3.078125q1.078125 0.921875 0.921875 2.765625q-0.140625 1.828125 -2.453125 6.578125q-2.296875 4.75 -7.5 14.5625q-1.53125 3.078125 -2.765625 5.375q-1.21875 2.296875 -1.21875 2.296875q1.21875 0.3125 3.671875 0.3125q2.453125 0 6.140625 -0.3125q3.359375 -0.609375 7.34375 -1.0625q4.0 -0.46875 7.0625 0.140625q7.046875 0 10.421875 4.0q3.375 3.984375 3.6875 10.109375q0.609375 3.375 -2.453125 5.828125q-3.0625 2.453125 -11.34375 2.453125q-2.765625 0 -7.984375 0.3125q-5.203125 0.296875 -10.734375 0.609375q-5.515625 0.296875 -9.34375 0.765625q-3.828125 0.453125 -3.828125 1.078125q-0.921875 0.609375 -2.921875 4.75q-1.984375 4.140625 -3.984375 9.96875q-2.0 5.828125 -3.53125 11.03125q-2.140625 10.421875 -3.0625 20.234375q-0.921875 9.8125 -0.15625 17.03125q0.765625 7.203125 3.53125 10.265625q2.765625 2.765625 8.4375 -0.140625q5.671875 -2.921875 10.578125 -6.90625q5.515625 -4.609375 9.5 -2.921875q3.984375 1.6875 5.0625 6.75q1.078125 5.0625 -2.921875 10.890625q-3.671875 5.828125 -10.421875 9.8125q-6.75 3.984375 -13.796875 5.671875q-7.046875 1.6875 -12.265625 0.15625zm120.815735 -7.984375q-9.1875 5.21875 -19.46875 5.984375q-10.265625 0.765625 -19.171875 -2.75q-8.890625 -3.53125 -14.40625 -10.59375q-3.0625 -3.984375 -5.828125 -12.71875q-2.75 -8.734375 -0.921875 -23.765625q1.84375 -14.109375 8.734375 -28.515625q6.90625 -14.421875 17.03125 -25.453125q10.125 -11.046875 22.078125 -15.03125q4.296875 -1.53125 8.734375 -2.296875q4.453125 -0.765625 11.8125 -0.15625q7.046875 0.921875 12.5625 3.53125q5.53125 2.609375 7.984375 5.671875q4.9062805 4.90625 6.4375305 9.515625q1.53125 4.59375 1.234375 8.875q-1.546875 9.8125 -8.7500305 21.171875q-7.203125 11.34375 -20.078125 16.859375q-5.21875 2.140625 -12.28125 2.765625q-7.046875 0.609375 -19.3125 -1.84375q-7.359375 -1.53125 -9.65625 1.53125q-2.296875 3.0625 -2.0 11.953125q0.625 5.53125 2.609375 9.671875q2.0 4.140625 7.515625 5.671875q7.046875 1.21875 10.109375 0.15625q3.078125 -1.078125 7.671875 -3.21875q2.453125 -1.546875 4.75 -3.375q2.3125 -1.84375 4.609375 -3.6875q2.296875 -1.84375 3.828125 -2.765625q1.53125 -1.21875 3.0625 -1.515625q1.546875 -0.3125 3.078125 -0.3125q3.375 0.296875 6.4375 3.671875q3.0625 3.375 3.984375 6.4375q0 2.453125 -3.0625 6.90625q-3.0625 4.453125 -8.125 9.203125q-5.0625 4.75 -11.203125 8.421875zm-3.984375 -68.375q2.15625 -0.921875 6.296875 -4.296875q4.140625 -3.375 7.5 -7.203125q3.375 -3.828125 3.375 -5.984375q0 -3.375 -4.453125 -5.828125q-4.4375 -2.453125 -11.484375 -0.921875q-2.453125 0.625 -5.828125 3.390625q-3.375 2.75 -6.75 6.28125q-3.375 3.515625 -5.828125 6.734375q-2.453125 3.21875 -3.375 5.0625q1.234375 1.53125 4.90625 2.453125q3.6875 0.921875 8.125 0.921875q4.453125 0 7.515625 -0.609375zm92.61075 71.75q-3.984375 1.84375 -9.203125 1.546875q-5.203125 -0.3125 -14.09375 -3.375q-0.625 0 -4.3125 -2.765625q-3.671875 -2.765625 -7.359375 -6.4375q-3.671875 -3.6875 -4.890625 -6.140625q-4.90625 -7.046875 -2.921875 -20.84375q2.0 -13.796875 9.671875 -33.125q2.140625 -4.59375 6.578125 -11.640625q4.453125 -7.0625 8.890625 -13.03125q4.453125 -5.984375 6.296875 -6.90625q0 0 3.375 -1.21875q3.375 -1.234375 8.59375 -4.0q1.53125 -0.609375 5.359375 -1.53125q3.828125 -0.921875 7.96875 -1.6875q4.140625 -0.765625 5.671875 -0.46875q6.140625 0.3125 12.734375 4.453125q6.59375 4.140625 10.875 9.515625q4.296875 5.359375 2.765625 9.34375q0 0.609375 -1.6875 3.828125q-1.6875 3.21875 -3.53125 6.453125q-1.828125 3.21875 -3.0625 4.75q-1.53125 1.84375 -5.375 1.53125q-3.828125 -0.3125 -6.890625 -2.453125q-3.0625 -2.15625 -3.375 -5.828125q-0.609375 -2.453125 -4.453125 -4.59375q-3.828125 -2.15625 -3.828125 -2.15625q-2.453125 0 -6.4375 4.90625q-3.984375 4.90625 -8.28125 11.046875q-5.515625 5.515625 -7.8125 11.8125q-2.296875 6.28125 -3.0625 11.65625q-0.765625 5.359375 -1.6875 8.109375q-1.234375 3.0625 -0.015625 7.671875q1.234375 4.59375 3.078125 5.21875q2.765625 0.296875 7.515625 -0.46875q4.75 -0.765625 10.109375 -2.140625q5.375 -1.390625 10.890625 -3.0625q5.515625 -1.6875 9.8125 -3.53125q5.828125 -3.6875 10.125 -2.921875q4.296875 0.765625 6.4375 1.390625q3.375 1.21875 3.375 5.203125q0 3.984375 -2.765625 8.4375q-2.75 4.453125 -7.96875 7.203125q-4.90625 2.453125 -8.75 5.375q-3.828125 2.90625 -3.828125 4.4375q-1.21875 0 -2.609375 0.765625q-1.375 0.765625 -2.296875 0.46875q-0.609375 0 -4.90625 0.921875q-4.28125 0.90625 -8.734375 2.140625q-4.453125 1.21875 -5.984375 2.140625zm83.720825 -8.890625q-2.140625 0.3125 -4.75 -1.671875q-2.609375 -2.0 -4.75 -3.53125q-3.078125 -3.6875 -4.3125 -6.4375q-1.21875 -2.765625 -1.21875 -6.140625q0 -3.375 0.625 -7.96875q1.53125 -4.90625 3.671875 -13.1875q2.140625 -8.28125 5.21875 -17.796875q0.609375 -3.671875 2.296875 -8.734375q1.6875 -5.0625 3.515625 -9.8125q1.84375 -4.75 2.765625 -7.203125q2.15625 -7.671875 4.453125 -14.71875q2.296875 -7.0625 5.671875 -16.25q3.375 -9.203125 8.28125 -23.3125q6.75 -18.40625 10.109375 -27.59375q3.375 -9.203125 4.90625 -13.1875q1.546875 -3.984375 2.15625 -6.4375q0 -2.453125 3.515625 -4.75q3.53125 -2.3125 6.296875 -2.3125q4.296875 0.3125 8.28125 5.0625q3.984375 4.75 5.515625 11.34375q1.53125 6.59375 -2.140625 12.734375q-4.90625 11.03125 -9.671875 24.6875q-4.75 13.640625 -9.34375 27.140625q-4.59375 13.484375 -9.203125 24.828125q-0.3125 1.53125 -2.0 5.21875q-1.671875 3.671875 -2.90625 6.125q-1.21875 2.453125 -2.296875 4.609375q-1.078125 2.140625 -1.078125 2.140625q-0.296875 1.84375 -1.21875 5.21875q-0.921875 3.375 -1.84375 5.828125q-0.3125 1.53125 -0.921875 3.984375q-0.609375 2.453125 -0.921875 4.90625q1.53125 -1.84375 4.296875 -4.453125q2.765625 -2.609375 7.046875 -6.59375q4.90625 -4.28125 8.578125 -7.34375q3.6875 -3.078125 7.375 -5.53125q3.375 -2.453125 6.28125 -4.59375q2.921875 -2.15625 2.921875 -2.15625q0.609375 -0.921875 1.375 -2.140625q0.765625 -1.234375 1.6875 -1.53125q0.609375 -0.625 2.140625 -1.6875q1.53125 -1.078125 3.078125 -2.296875q2.75 -1.84375 5.8125 -3.0625q3.078125 -1.234375 6.453125 -1.84375q3.375 -0.625 6.4375 -0.625q3.671875 0 7.65625 2.921875q4.0 2.90625 7.359375 8.125q3.078125 3.984375 3.84375 9.359375q0.765625 5.359375 0.15625 14.25q0 2.453125 -1.390625 9.203125q-1.375 6.75 -1.984375 10.109375l-2.765625 10.4375l2.453125 0q3.375 -1.234375 6.59375 -0.3125q3.21875 0.921875 3.21875 0.921875q1.53125 0.921875 2.90625 2.15625q1.390625 1.21875 2.609375 1.828125q1.84375 2.453125 -0.609375 7.0625q-2.453125 4.59375 -5.515625 6.4375q-7.359375 4.90625 -13.03125 6.140625q-5.671875 1.21875 -11.8125 -2.15625q-5.828125 -3.984375 -7.828125 -9.5q-1.984375 -5.53125 -1.671875 -15.03125q1.21875 -13.5 1.53125 -19.46875q0.3125 -5.984375 -3.0625 -5.984375q-3.6875 0 -9.984375 3.53125q-6.28125 3.515625 -13.953125 9.5q-7.65625 5.984375 -15.171875 13.1875q-7.515625 7.203125 -13.328125 14.5625q-3.6875 4.59375 -7.984375 9.046875q-4.28125 4.453125 -10.421875 4.75z" fill-rule="nonzero"/></g></svg>